<?xml version="1.0" standalone="no"?>
<!DOCTYPE svg PUBLIC "-//W3C//DTD SVG 20010904//EN"
 "http://www.w3.org/TR/2001/REC-SVG-20010904/DTD/svg10.dtd">
<svg version="1.0" xmlns="http://www.w3.org/2000/svg"
 width="100%" height="16" viewBox="0 0 300.000000 300.000000"
 preserveAspectRatio="xMidYMid meet">

<g transform="translate(0.000000,300.000000) scale(0.100000,-0.100000)"
fill="#000000" stroke="none">
<path d="M1335 2234 c-142 -28 -274 -115 -354 -235 -36 -54 -101 -202 -101
-230 0 -6 20 11 45 39 124 138 298 178 448 104 43 -22 95 -64 172 -138 134
-131 192 -175 276 -212 103 -47 160 -57 314 -56 123 1 150 4 220 27 178 59
297 182 367 380 l29 82 -63 -63 c-39 -39 -88 -75 -128 -95 -58 -29 -74 -32
-155 -32 -128 0 -171 23 -336 181 -136 131 -203 180 -291 215 -121 48 -301 61
-443 33z"/>
<path d="M738 1490 c-228 -41 -379 -174 -460 -403 l-29 -82 63 63 c39 39 88
75 128 95 58 29 74 32 155 32 128 0 171 -23 336 -181 179 -172 258 -219 417
-250 279 -53 538 38 671 237 36 54 101 202 101 230 0 6 -20 -11 -45 -39 -88
-98 -205 -149 -321 -139 -99 8 -159 42 -285 162 -182 174 -257 224 -391 261
-63 18 -274 27 -340 14z"/>
</g>
</svg>
